HIERARCHY
ROOT hip
{
  OFFSET 0 0 0
  CHANNELS 6 Xposition Yposition Zposition Zrotation Yrotation Xrotation
  JOINT abdomen
  {
    OFFSET 0 20.6881 -0.73152
    CHANNELS 3 Zrotation Xrotation Yrotation
    JOINT chest
    {
      OFFSET 0 11.7043 -0.48768
      CHANNELS 3 Zrotation Xrotation Yrotation
      JOINT neck
      {
        OFFSET 0 22.1894 -2.19456
        CHANNELS 3 Zrotation Xrotation Yrotation
        JOINT head
        {
          OFFSET -0.24384 7.07133 1.2192
          CHANNELS 3 Zrotation Xrotation Yrotation
          JOINT leftEye
          {
            OFFSET 4.14528 8.04674 8.04672
            CHANNELS 3 Zrotation Xrotation Yrotation
            End Site
            {
              OFFSET 1 0 0
            }
          }
          JOINT rightEye
          {
            OFFSET -3.6576 8.04674 8.04672
            CHANNELS 3 Zrotation Xrotation Yrotation
            End Site
            {
              OFFSET 1 0 0
            }
          }
        }
      }
      JOINT rCollar
      {
        OFFSET -2.68224 19.2634 -4.8768
        CHANNELS 3 Zrotation Xrotation Yrotation
        JOINT rShldr
        {
          OFFSET -8.77824 -1.95073 1.46304
          CHANNELS 3 Zrotation Xrotation Yrotation
          JOINT rForeArm
          {
            OFFSET -28.1742 -1.7115 0.48768
            CHANNELS 3 Zrotation Xrotation Yrotation
            JOINT rHand
            {
              OFFSET -22.5879 0.773209 7.07136
              CHANNELS 3 Zrotation Xrotation Yrotation
              JOINT rThumb1
              {
                OFFSET -1.2192 -0.487915 3.41376
                CHANNELS 3 Zrotation Xrotation Yrotation
                JOINT rThumb2
                {
                  OFFSET -3.37035 -0.52449 3.41376
                  CHANNELS 3 Zrotation Xrotation Yrotation
                  End Site
                  {
                    OFFSET -1.78271 -1.18214 1.43049
                  }
                }
              }
              JOINT rIndex1
              {
                OFFSET -7.75947 0.938293 5.60832
                CHANNELS 3 Zrotation Xrotation Yrotation
                JOINT rIndex2
                {
                  OFFSET -2.54057 -0.884171 1.56538
                  CHANNELS 3 Zrotation Xrotation Yrotation
                  End Site
                  {
                    OFFSET -1.62519 -0.234802 1.16502
                  }
                }
              }
              JOINT rMid1
              {
                OFFSET -8.24714 1.18213 3.41376
                CHANNELS 3 Zrotation Xrotation Yrotation
                JOINT rMid2
                {
                  OFFSET -3.10165 -0.590103 1.0647
                  CHANNELS 3 Zrotation Xrotation Yrotation
                  End Site
                  {
                    OFFSET -2.48547 -0.328903 0.83742
                  }
                }
              }
              JOINT rRing1
              {
                OFFSET -8.82822 0.546677 1.51678
                CHANNELS 3 Zrotation Xrotation Yrotation
                JOINT rRing2
                {
                  OFFSET -2.60934 -0.819778 -0.0198488
                  CHANNELS 3 Zrotation Xrotation Yrotation
                  End Site
                  {
                    OFFSET -2.33842 -0.294052 0.168128
                  }
                }
              }
              JOINT rPinky1
              {
                OFFSET -8.27202 -0.0477905 -0.4584
                CHANNELS 3 Zrotation Xrotation Yrotation
                JOINT rPinky2
                {
                  OFFSET -1.82734 -0.647385 -0.700984
                  CHANNELS 3 Zrotation Xrotation Yrotation
                  End Site
                  {
                    OFFSET -1.69225 -0.51767 -0.607171
                  }
                }
              }
            }
          }
        }
      }
      JOINT lCollar
      {
        OFFSET 2.68224 19.2634 -4.8768
        CHANNELS 3 Zrotation Xrotation Yrotation
        JOINT lShldr
        {
          OFFSET 8.77824 -1.95073 1.46304
          CHANNELS 3 Zrotation Xrotation Yrotation
          JOINT lForeArm
          {
            OFFSET 28.1742 -1.7115 0.48768
            CHANNELS 3 Zrotation Xrotation Yrotation
            JOINT lHand
            {
              OFFSET 22.5879 0.773209 7.07136
              CHANNELS 3 Zrotation Xrotation Yrotation
              JOINT lThumb1
              {
                OFFSET 1.2192 -0.487915 3.41376
                CHANNELS 3 Zrotation Xrotation Yrotation
                JOINT lThumb2
                {
                  OFFSET 3.37035 -0.52449 3.41376
                  CHANNELS 3 Zrotation Xrotation Yrotation
                  End Site
                  {
                    OFFSET 1.78271 -1.18214 1.43049
                  }
                }
              }
              JOINT lIndex1
              {
                OFFSET 7.75947 0.938293 5.60832
                CHANNELS 3 Zrotation Xrotation Yrotation
                JOINT lIndex2
                {
                  OFFSET 2.54057 -0.884171 1.56538
                  CHANNELS 3 Zrotation Xrotation Yrotation
                  End Site
                  {
                    OFFSET 1.62519 -0.234802 1.16502
                  }
                }
              }
              JOINT lMid1
              {
                OFFSET 8.24714 1.18213 3.41376
                CHANNELS 3 Zrotation Xrotation Yrotation
                JOINT lMid2
                {
                  OFFSET 3.10165 -0.590103 1.0647
                  CHANNELS 3 Zrotation Xrotation Yrotation
                  End Site
                  {
                    OFFSET 2.48547 -0.328903 0.83742
                  }
                }
              }
              JOINT lRing1
              {
                OFFSET 8.82822 0.546677 1.51678
                CHANNELS 3 Zrotation Xrotation Yrotation
                JOINT lRing2
                {
                  OFFSET 2.60934 -0.819778 -0.0198488
                  CHANNELS 3 Zrotation Xrotation Yrotation
                  End Site
                  {
                    OFFSET 2.33842 -0.294052 0.168128
                  }
                }
              }
              JOINT lPinky1
              {
                OFFSET 8.27202 -0.0477905 -0.4584
                CHANNELS 3 Zrotation Xrotation Yrotation
                JOINT lPinky2
                {
                  OFFSET 1.82734 -0.647385 -0.700984
                  CHANNELS 3 Zrotation Xrotation Yrotation
                  End Site
                  {
                    OFFSET 1.69225 -0.51767 -0.607171
                  }
                }
              }
            }
          }
        }
      }
    }
  }
  JOINT rButtock
  {
    OFFSET -8.77824 4.35084 1.2192
    CHANNELS 3 Zrotation Xrotation Yrotation
    JOINT rThigh
    {
      OFFSET 0 -1.70687 -2.19456
      CHANNELS 3 Zrotation Xrotation Yrotation
      JOINT rShin
      {
        OFFSET 0 -36.8199 0.73152
        CHANNELS 3 Zrotation Xrotation Yrotation
        JOINT rFoot
        {
          OFFSET 0.73152 -45.1104 -5.12064
          CHANNELS 3 Zrotation Xrotation Yrotation
          End Site
          {
            OFFSET -1.1221 -3.69964 12.103
          }
        }
      }
    }
  }
  JOINT lButtock
  {
    OFFSET 8.77824 4.35084 1.2192
    CHANNELS 3 Zrotation Xrotation Yrotation
    JOINT lThigh
    {
      OFFSET 0 -1.70687 -2.19456
      CHANNELS 3 Zrotation Xrotation Yrotation
      JOINT lShin
      {
        OFFSET 0 -36.8199 0.73152
        CHANNELS 3 Zrotation Xrotation Yrotation
        JOINT lFoot
        {
          OFFSET -0.73152 -45.1104 -5.12064
          CHANNELS 3 Zrotation Xrotation Yrotation
          End Site
          {
            OFFSET 1.1221 -3.69964 12.103
          }
        }
      }
    }
  }
}
MOTION
Frames:	4
Frame Time:	0.00833333
40.2949 85.2982 16.7279 0.0 0.0 0.0 0.984386 -0.00436078 0.0272522 0.271554 -0.00455299 0.047046 -1.98048e-14 0.0 3.60297e-16 -5.93776e-14 3.18055e-15 1.05449e-15 -0.0 0.0 0.0 -0.0 0.0 0.0 -9.99043e-15 2.67893e-17 3.47873e-16 -2.06443e-13 8.13775e-16 3.97569e-15 -3.5734e-12 1.08775e-12 9.54166e-14 -4.09052e-11 -9.6254e-13 6.83819e-13 -9.64893e-11 2.66185e-13 1.73022e-12 -1.66643e-10 4.54819e-13 2.98495e-12 -9.64845e-11 2.64781e-13 1.72704e-12 7.73091 5.47488 0.417314 -9.6491e-11 2.65775e-13 1.73022e-12 2.90554 0.965183 0.102902 -9.64855e-11 2.65974e-13 1.72943e-12 10.2786 0.731801 0.0259123 -9.6496e-11 2.65974e-13 1.74612e-12 2.22167 -0.733487 -0.20892 -1.01869e-14 2.52363e-17 -4.96962e-17 -2.08745e-13 7.26806e-16 2.78299e-15 -3.57494e-12 -1.04859e-12 1.145e-13 -4.08971e-11 1.16679e-12 6.87e-13 -9.64698e-11 2.52261e-13 1.73022e-12 -1.66582e-10 4.29375e-13 2.99767e-12 -9.64762e-11 2.54047e-13 1.73658e-12 -7.73091 5.47488 -0.417314 -9.64696e-11 2.52457e-13 1.73022e-12 -2.90554 0.965183 -0.102902 -9.64742e-11 2.52158e-13 1.73022e-12 -10.2786 0.731801 -0.0259123 -9.64636e-11 2.54444e-13 1.7175e-12 -2.22167 -0.733487 0.20892 -2.03217e-16 0.0 -3.88251e-19 1.2484 -5.45303 -0.109145 7.21521e-05 4.32244 0.0239068 -0.510232 1.12947 0.0811791 2.03217e-16 0.0 3.88251e-19 0.249252 -1.91924 0.0129302 0.0092867 -2.07855 0.0767113 0.496696 3.99654 -0.13801
34.0604 82.3983 8.90312 166.991 -80.0908 -160.487 0.339975 8.44535 0.62319 0.511763 -1.23043 0.0665075 -4.79377 -0.941197 -3.8702 5.33435 -1.53109 -5.75682 -0.0 0.0 0.0 -0.0 0.0 0.0 -1.07662e-13 -2.01e-14 1.17605e-13 21.1387 8.15951 6.62005 -11.0213 -7.90904 12.9245 0.1187 -7.65673 -1.04173 -1.01959e-10 -8.9771e-10 1.23785e-09 -2.06338e-10 -1.55099e-09 2.13972e-09 -1.01953e-10 -8.97711e-10 1.23784e-09 7.73091 5.47488 0.417314 -1.0196e-10 -8.9771e-10 1.23785e-09 2.90554 0.965183 0.102902 -1.01954e-10 -8.9771e-10 1.23785e-09 10.2786 0.731801 0.0259123 -1.01963e-10 -8.97709e-10 1.23786e-09 2.22167 -0.733487 -0.20892 -1.07813e-13 -2.0096e-14 1.17262e-13 -18.3917 13.7288 -7.0016 10.1399 -7.00148 -12.3941 -0.027983 -3.71261 0.517826 4.77001e-10 8.61422e-10 -1.6641e-09 8.44184e-10 1.49548e-09 -2.87371e-09 4.76994e-10 8.61422e-10 -1.66409e-09 -7.73091 5.47488 -0.417314 4.77e-10 8.61421e-10 -1.66409e-09 -2.90554 0.965183 -0.102902 4.76995e-10 8.61421e-10 -1.66409e-09 -10.2786 0.731801 -0.0259123 4.77007e-10 8.61423e-10 -1.6641e-09 -2.22167 -0.733487 0.20892 -2.03217e-16 0.0 -3.88251e-19 -4.60203 -13.9209 -2.69822 -0.00332424 16.1837 0.195205 -0.733332 -1.40983 -1.05529 2.03217e-16 0.0 3.88251e-19 2.78288 -12.862 4.92472 0.036869 14.7262 -0.124345 0.778739 -1.7344 0.772771
33.9748 82.4149 9.02915 166.112 -79.8098 -159.664 -0.535355 17.3731 1.29948 0.763526 -2.52685 0.0878208 -9.99624 -1.92849 -7.96214 10.6252 -3.08531 -11.852 -0.0 0.0 0.0 -0.0 0.0 0.0 -2.17116e-13 -6.13747e-14 2.5132e-13 41.3768 16.4096 14.0676 -18.8179 -14.9116 27.3217 -0.0691085 -15.7241 -2.20414 -1.21053e-10 -1.89646e-09 2.61197e-09 -2.72934e-10 -3.27646e-09 4.51476e-09 -1.21047e-10 -1.89646e-09 2.61196e-09 7.73091 5.47488 0.417314 -1.21053e-10 -1.89646e-09 2.61197e-09 2.90554 0.965183 0.102902 -1.21048e-10 -1.89646e-09 2.61197e-09 10.2786 0.731801 0.0259123 -1.21054e-10 -1.89646e-09 2.61198e-09 2.22167 -0.733487 -0.20892 -2.17221e-13 -6.13646e-14 2.51034e-13 -33.7799 27.5472 -15.8251 17.5945 -13.2961 -26.0481 0.0159693 -7.62885 1.07147 1.10925e-09 1.81735e-09 -3.51856e-09 1.95878e-09 3.15511e-09 -6.07627e-09 1.10925e-09 1.81735e-09 -3.51857e-09 -7.73091 5.47488 -0.417314 1.10925e-09 1.81735e-09 -3.51856e-09 -2.90554 0.965183 -0.102902 1.10925e-09 1.81735e-09 -3.51856e-09 -10.2786 0.731801 -0.0259123 1.10926e-09 1.81735e-09 -3.51857e-09 -2.22167 -0.733487 0.20892 -2.03217e-16 0.0 -3.88251e-19 -11.6841 -22.7993 -5.72706 -0.0946214 28.7187 0.410672 -1.07618 -4.04158 -2.2559 2.03217e-16 0.0 3.88251e-19 7.67194 -24.1403 10.8165 0.213052 32.4884 -0.389351 1.27502 -7.78622 1.74701
33.8595 82.4532 9.07565 166.384 -79.5832 -160.214 -1.52422 25.3329 1.98582 0.994685 -3.68219 0.105602 -14.7602 -2.77211 -11.6228 15.0932 -4.40814 -17.3171 -0.0 0.0 0.0 -0.0 0.0 0.0 -3.03005e-13 -6.03535e-14 3.5212e-13 57.4751 23.1179 21.4557 -22.7989 -18.8417 41.0178 -0.539665 -22.9385 -3.36356 -1.12897e-10 -2.69366e-09 3.71009e-09 -2.85727e-10 -4.65387e-09 6.41318e-09 -1.12891e-10 -2.69366e-09 3.71008e-09 7.73091 5.47488 0.417314 -1.12897e-10 -2.69366e-09 3.71009e-09 2.90554 0.965183 0.102902 -1.12891e-10 -2.69366e-09 3.71009e-09 10.2786 0.731801 0.0259123 -1.12896e-10 -2.69366e-09 3.7101e-09 2.22167 -0.733487 -0.20892 -3.03067e-13 -6.03384e-14 3.51885e-13 -43.0521 38.3789 -26.4035 21.7159 -17.043 -38.9034 0.120634 -11.1342 1.57996 1.62394e-09 2.58376e-09 -4.99575e-09 2.86572e-09 4.4856e-09 -8.62712e-09 1.62394e-09 2.58376e-09 -4.99575e-09 -7.73091 5.47488 -0.417314 1.62394e-09 2.58376e-09 -4.99574e-09 -2.90554 0.965183 -0.102902 1.62393e-09 2.58376e-09 -4.99574e-09 -10.2786 0.731801 -0.0259123 1.62395e-09 2.58376e-09 -4.99575e-09 -2.22167 -0.733487 0.20892 -2.03217e-16 0.0 -3.88251e-19 -18.9241 -30.5973 -8.88444 -0.280966 39.9045 0.671004 -1.48307 -6.47816 -3.34865 2.03217e-16 0.0 3.88251e-19 14.3763 -33.6439 17.3528 0.580486 48.3331 -0.773334 1.8996 -13.183 2.66282
